HIERARCHY
ROOT hip
{
	OFFSET 0.000000 0.000000 0.000000 
	CHANNELS 6 Xposition Yposition Zposition Xrotation Zrotation Yrotation
	JOINT abdomen
	{
		OFFSET 0.000000 3.402643 0.000000 
		CHANNELS 3 Xrotation Zrotation Yrotation
		JOINT chest
		{
			OFFSET 0.000000 8.438565 -0.680529 
			CHANNELS 3 Xrotation Zrotation Yrotation
			JOINT neck
			{
				OFFSET 0.000000 10.207942 -0.272212 
				CHANNELS 3 Xrotation Zrotation Yrotation
				JOINT head
				{
					OFFSET 0.000000 3.130431 0.000000 
					CHANNELS 3 Xrotation Zrotation Yrotation
					End Site
					{
						OFFSET 0.000000 3.130435 0.000000 
					}
				}
			}
			JOINT lCollar
			{
				OFFSET 3.470700 6.669187 -0.816635 
				CHANNELS 3 Yrotation Zrotation Xrotation
				JOINT lShldr
				{
					OFFSET 3.198488 0.000000 0.000000 
					CHANNELS 3 Zrotation Yrotation Xrotation
					JOINT lForeArm
					{
						OFFSET 10.139888 0.000000 0.000000 
						CHANNELS 3 Yrotation Zrotation Xrotation
						JOINT lHand
						{
							OFFSET 8.370511 0.000000 0.000000 
							CHANNELS 3 Zrotation Yrotation Xrotation
							End Site
							{
								OFFSET 4.083176 0.000000 0.000000 
							}
						}
					}
				}
			}
			JOINT rCollar
			{
				OFFSET -3.470700 6.669187 -0.816635 
				CHANNELS 3 Yrotation Zrotation Xrotation
				JOINT rShldr
				{
					OFFSET -3.198488 0.000000 0.000000 
					CHANNELS 3 Zrotation Yrotation Xrotation
					JOINT rForeArm
					{
						OFFSET -10.139888 0.000000 0.000000 
						CHANNELS 3 Yrotation Zrotation Xrotation
						JOINT rHand
						{
							OFFSET -8.370511 0.000000 0.000000 
							CHANNELS 3 Zrotation Yrotation Xrotation
							End Site
							{
								OFFSET -4.083176 0.000000 0.000000 
							}
						}
					}
				}
			}
		}
	}
	JOINT lThigh
	{
		OFFSET 5.308129 -1.633274 1.361059 
		CHANNELS 3 Xrotation Zrotation Yrotation
		JOINT lShin
		{
			OFFSET -2.041588 -20.007561 0.000000 
			CHANNELS 3 Xrotation Zrotation Yrotation
			JOINT lFoot
			{
				OFFSET 0.000000 -19.190928 -1.224953 
				CHANNELS 3 Xrotation Yrotation Zrotation
				End Site
				{
					OFFSET 0.000000 -2.449906 4.627600 
				}
			}
		}
	}
	JOINT rThigh
	{
		OFFSET -5.308129 -1.633274 1.361059 
		CHANNELS 3 Xrotation Zrotation Yrotation
		JOINT rShin
		{
			OFFSET 2.041588 -20.007561 0.000000 
			CHANNELS 3 Xrotation Zrotation Yrotation
			JOINT rFoot
			{
				OFFSET 0.000000 -19.190928 -1.224953 
				CHANNELS 3 Xrotation Yrotation Zrotation
				End Site
				{
					OFFSET 0.000000 -2.449906 4.627600 
				}
			}
		}
	}
}
MOTION
Frames: 16
Frame Time: 0.033333
9.083454 50.229630 -0.269084 -2.329741 10.085045 -7.736488 0.000000 0.000000 0.000000 8.308609 14.711539 -10.918283 -27.454090 3.035106 -2.082847 28.002136 -21.161367 0.500596 -3.521967 9.154817 6.304141 -109.255608 -3.096996 -11.143890 -11.528278 3.660673 20.963369 -11.659241 -2.003865 -6.138000 3.089181 -14.089146 8.026228 24.039013 27.524260 -97.035065 100.862076 24.844351 13.018365 -15.617755 4.652065 -9.982007 -3.074079 -8.851733 3.820770 19.470276 -4.045972 -9.456264 -13.395357 -0.697560 4.764006 -6.750254 -39.144604 -25.375978 10.070899 -4.297019 22.785807 29.211811 2.675816 12.569370 
8.066145 50.275578 -0.068152 -2.234289 10.414598 -6.870154 0.000000 0.000000 0.000000 7.517387 14.383711 -11.345962 -26.924673 3.064496 -2.024335 27.891836 -21.336872 0.584007 -3.521967 9.154817 6.304141 -108.937958 -2.479368 -11.227264 -11.486876 3.650455 20.994669 -12.074712 -1.709610 -6.136065 3.089181 -14.089146 8.026228 25.808435 24.607561 -96.075500 101.666626 25.217470 12.180508 -15.781439 4.551191 -9.996635 -2.674602 -7.886981 4.104434 19.401966 -3.958273 -10.595136 -12.704377 -0.664137 4.643258 -5.527802 -38.954685 -26.021473 10.990665 -4.006105 25.845562 26.670033 2.082258 10.931579 
7.016651 50.293003 0.162564 -2.209935 10.880577 -6.404122 0.000000 0.000000 0.000000 6.815895 13.740862 -11.132949 -26.241102 3.073908 -2.200387 27.765070 -21.405647 0.447981 -3.521967 9.154817 6.304141 -108.557121 -1.693137 -11.306937 -11.704925 3.671592 20.924007 -12.273357 -1.599914 -6.128789 3.089181 -14.089146 8.026228 27.254007 21.241877 -95.831444 102.342377 25.760580 11.428479 -15.666549 4.393765 -9.961285 -2.283677 -7.095504 4.349660 19.363720 -3.811837 -11.396957 -12.193386 -0.621294 4.442091 -4.356116 -38.778080 -26.677933 11.476643 -3.613011 28.446962 24.268129 1.556065 9.310407 
5.939413 50.311131 0.393765 -2.293575 11.272985 -6.212452 0.000000 0.000000 0.000000 6.574088 12.861288 -10.579130 -26.288704 3.317099 -2.523218 28.102837 -21.552509 0.272028 -3.521967 9.154817 6.304141 -108.025993 -1.039088 -11.346351 -11.675447 3.700969 21.588074 -11.420486 -2.663482 -6.066080 3.089181 -14.089146 8.026228 29.261467 17.943737 -96.319733 102.595665 26.466696 10.808430 -15.547508 4.395417 -9.947343 -1.560979 -6.100127 4.843477 18.964304 -3.870230 -12.456222 -11.641314 -0.567865 4.256966 -3.145782 -38.357643 -27.289656 11.885137 -3.211130 29.394115 21.931486 1.113256 7.711493 
4.831867 50.310734 0.584605 -2.252133 11.491347 -5.988427 0.000000 0.000000 0.000000 6.239776 12.332903 -10.318669 -26.136068 2.898636 -1.994576 27.937588 -20.907558 0.469762 -3.521967 9.154817 6.304141 -107.562988 -0.452458 -11.695360 -11.553416 3.700500 22.052954 -10.618982 -3.786505 -5.990613 3.089181 -14.089146 8.026228 30.724670 15.262510 -96.905983 102.772438 27.194656 10.488920 -15.275162 4.697742 -9.930489 -1.051684 -4.856106 5.437937 18.599846 -3.928815 -13.342834 -10.954886 -0.440792 3.727852 -2.180402 -37.533916 -27.644760 12.397029 -2.864189 28.382364 19.268961 0.757289 5.898417 
3.782047 50.292812 0.704016 -1.972210 11.710905 -5.703184 0.000000 0.000000 0.000000 5.630930 11.777444 -10.246496 -25.586985 2.411372 -1.417227 27.354746 -20.467140 0.747519 -3.521967 9.154817 6.304141 -107.233910 0.184816 -12.253338 -12.146398 3.741443 20.967768 -11.222982 -3.218118 -5.998803 3.089181 -14.089146 8.026228 31.698898 12.887090 -97.240753 102.250359 27.704536 10.904531 -14.982414 4.481963 -9.870478 -1.073555 -3.738431 5.835750 18.487320 -3.753464 -14.195086 -9.832739 -0.330239 2.853441 -1.722505 -36.731308 -27.594305 12.814548 -2.618007 27.470823 17.195477 0.441501 4.530074 
2.859601 50.312855 0.776557 -1.604578 12.026439 -5.481379 0.000000 0.000000 0.000000 4.731752 11.219024 -10.255761 -25.022005 1.982167 -0.918433 27.220972 -20.310114 0.914411 -3.521967 9.154817 6.304141 -107.159882 0.787087 -12.884634 -12.578593 3.801044 20.273989 -11.895691 -2.924324 -5.948729 3.089181 -14.089146 8.026228 32.647869 11.057435 -97.091415 100.603210 28.036644 11.703702 -14.682140 4.406509 -9.825830 -1.011800 -2.914373 6.043104 17.783943 -3.597384 -15.049067 -8.314481 -0.144526 1.812414 -1.761601 -36.067451 -27.181192 13.236677 -2.619987 26.841520 15.389188 0.320856 3.362941 
2.068758 50.392574 0.839177 -1.202154 12.358346 -5.418687 0.000000 0.000000 0.000000 3.834291 10.991405 -10.158297 -25.090790 1.308591 -0.126920 28.015795 -19.889566 1.037910 -3.521967 9.154817 6.304141 -107.486526 1.301241 -13.659036 -12.737563 3.887293 20.907795 -12.341511 -3.851875 -5.729783 3.089181 -14.089146 8.026228 33.076637 9.806522 -97.934196 98.404007 28.497728 12.330650 -14.400853 4.981406 -9.818616 -0.807500 -2.242474 6.220240 16.577633 -3.567541 -15.313711 -6.452479 0.075000 0.300197 -2.080348 -35.351627 -26.461329 13.750565 -2.730052 25.121389 13.001476 0.146989 1.989649 
1.331433 50.504753 0.809166 -0.546273 12.707104 -5.484319 0.000000 0.000000 0.000000 2.969452 10.800798 -9.802563 -25.217653 1.074196 0.371212 28.616449 -19.917885 1.192262 -3.521967 9.154817 6.304141 -107.876945 1.581501 -14.354170 -13.568575 4.018973 20.024475 -13.680882 -2.623146 -5.773540 3.089181 -14.089146 8.026228 33.354874 8.602794 -99.522949 96.188751 29.268345 12.356216 -14.384480 5.655285 -9.864616 -0.789937 -1.483156 6.626103 14.937696 -3.830666 -15.640532 -4.037558 0.173011 -1.525807 -2.980659 -34.488571 -25.459452 14.377227 -2.901857 21.846018 9.579640 0.006569 0.315684 
0.633587 50.627041 0.732651 0.089277 13.141293 -5.644468 0.000000 0.000000 0.000000 2.272154 10.456418 -9.405040 -24.976622 1.093665 0.713134 28.280464 -19.944466 1.547670 -3.521967 9.154817 6.304141 -107.980957 1.682675 -14.676480 -14.106741 4.112114 18.879705 -14.932943 -2.411755 -5.633204 3.089181 -14.089146 8.026228 33.640430 7.876129 -101.251732 93.909767 29.925545 12.915752 -14.447110 6.337151 -9.913938 -0.677621 -0.886681 6.858982 12.926283 -3.996255 -16.275475 -1.034209 0.278791 -3.737648 -3.937638 -33.882481 -24.639511 14.875884 -2.892663 19.717587 6.613225 -0.009814 -1.055795 
-0.060534 50.816902 0.686936 0.363606 13.297448 -5.618167 0.000000 0.000000 0.000000 2.069871 10.356270 -9.531615 -24.930105 1.093547 1.103874 28.087322 -19.687178 1.905648 -3.521967 9.154817 6.304141 -107.840477 1.617154 -14.608448 -14.087078 4.061374 18.395924 -15.612923 -2.597431 -5.520302 3.089181 -14.089146 8.026228 34.050461 7.596809 -102.488457 91.669716 30.156128 14.622651 -14.501760 6.568223 -9.935737 0.189856 -0.114301 7.189393 10.036097 -4.023556 -17.525534 2.866955 0.209637 -6.557899 -4.592003 -33.246841 -24.014404 15.752747 -2.862325 19.105120 5.531079 0.011547 -1.411645 
-0.915367 51.003807 0.562881 0.979821 12.970407 -5.450547 0.000000 0.000000 0.000000 1.438483 10.619509 -9.747375 -24.808392 1.220435 1.201523 28.138298 -19.627031 2.050823 -3.521967 9.154817 6.304141 -107.279083 1.535483 -14.408547 -13.917276 4.024648 18.782608 -15.897390 -2.006406 -5.592907 3.089181 -14.089146 8.026228 34.618343 7.284682 -102.907616 90.351288 30.441153 15.326806 -14.163013 6.982751 -9.898911 0.409281 1.349982 7.846728 7.739315 -4.130596 -19.143345 6.312417 -0.029303 -9.204676 -5.851546 -31.751165 -22.667845 17.111681 -3.058543 17.349730 4.270733 -0.013100 -1.703710 
-1.925733 51.086578 0.354319 1.945680 12.403109 -5.608252 0.000000 0.000000 0.000000 0.566820 10.514813 -9.385837 -25.021536 1.650165 0.947716 28.133316 -19.558125 2.103374 -3.521967 9.154817 6.304141 -105.964165 1.681387 -14.426740 -13.790282 4.042940 19.526745 -16.037861 -2.784810 -5.407428 3.089181 -14.089146 8.026228 35.707363 6.681401 -102.581795 89.666878 30.703241 15.489185 -13.850776 7.582573 -9.872034 -0.615134 3.230306 8.540850 7.363421 -3.946242 -20.220615 8.543351 -0.248057 -11.323505 -7.773838 -29.606014 -20.740486 18.437912 -3.409073 15.422170 1.878746 0.085843 -2.605526 
-3.024237 51.163429 0.092673 2.840116 11.432711 -5.509715 0.000000 0.000000 0.000000 0.347718 10.094797 -9.572721 -26.400242 2.109221 0.693968 28.676546 -18.904608 2.062882 -3.521967 9.154817 6.304141 -104.036522 1.786112 -14.799268 -14.034041 4.086032 19.067331 -16.151949 -3.855445 -5.183438 3.089181 -14.089146 8.026228 37.418533 6.428248 -102.045776 88.757111 30.685844 16.408300 -13.142975 8.055563 -9.790484 -1.728447 5.516572 9.411891 7.300566 -3.683068 -20.917088 10.281943 -0.515237 -13.005357 -9.258134 -27.101210 -19.150921 19.527803 -3.450744 13.990969 0.540463 0.151439 -2.998125 
-4.189854 51.282658 -0.134272 3.388501 10.240820 -5.259775 0.000000 0.000000 0.000000 0.339615 9.208277 -9.923731 -27.681561 2.519494 0.313056 29.338341 -18.174238 1.899241 -3.521967 9.154817 6.304141 -101.741837 1.986237 -15.450909 -14.173372 4.161240 19.389599 -14.770808 -4.563683 -5.242317 3.089181 -14.089146 8.026228 39.729931 6.137357 -101.090424 87.358856 30.531008 17.414690 -12.145597 8.840171 -9.646900 -2.411239 7.875411 10.233897 7.013047 -3.214562 -21.036926 11.868079 -0.748973 -14.689225 -9.550617 -24.610962 -18.500349 19.763956 -2.782611 12.564801 -0.244150 0.162437 -3.073830 
-5.381660 51.402184 -0.312743 3.654589 9.082878 -5.289954 0.000000 0.000000 0.000000 0.163672 7.921991 -9.771572 -27.680670 2.382807 0.117492 29.238926 -17.248909 1.674301 -3.521967 9.154817 6.304141 -99.365181 2.300512 -16.150787 -14.281899 4.272219 20.441551 -12.249584 -3.311457 -5.833366 3.089181 -14.089146 8.026228 42.192917 5.444653 -99.232658 85.689018 30.265326 18.173342 -11.875177 9.897555 -9.632501 -2.890389 10.016457 10.778724 6.933710 -2.531524 -20.607519 13.139038 -1.010440 -16.215134 -9.208779 -22.174055 -18.182972 19.237209 -1.894223 11.326118 -1.283963 0.191791 -3.354666 
